<?xml version="1.0" encoding="UTF-8"?>
<svg id="Livello_2" data-name="Livello 2" xmlns="http://www.w3.org/2000/svg" viewBox="0 0 309.74 171.51">
  <defs>
    <style>
      .cls-1 {
        fill: #fff;
        stroke-width: 0px;
      }
    </style>
  </defs>
  <g id="Livello_1-2" data-name="Livello 1">
    <g>
      <path class="cls-1" d="M117.56,39.29c0-7.14-.1-14.28.03-21.42.13-7.57,3.43-13.33,10.54-16.38,2.17-.93,4.69-1.47,7.05-1.48,6.44-.04,12.92-.04,19.32.56,6.3.59,12.31,2.51,16.97,7.2,3.97,4,6.1,8.91,6.3,14.5.11,3.04-.25,6.11-.61,9.14-.14,1.17.16,1.64,1.17,2.05,4.74,1.93,8.53,4.95,10.73,9.69,1.36,2.93,2.08,6.03,2.43,9.24.51,4.76.82,9.52-.72,14.14-2.19,6.54-6.89,10.63-13.24,12.96-5.77,2.11-11.78,3.01-17.9,3.09-6.77.09-13.54.12-20.31,0-3.51-.07-6.98-.59-10.35-1.81-6-2.17-9.27-6.56-10.34-12.59-.65-3.63-.92-7.35-1.02-11.03-.16-5.94-.04-11.9-.04-17.85ZM125.76,40.15h0c0,5.95-.05,11.9.02,17.85.04,3.33.02,6.68,1.16,9.9.95,2.68,2.71,4.5,5.41,5.41,5.01,1.68,10.23,1.32,15.37,1.45,4.7.12,9.41-.24,14.12-.38,4.28-.12,8.48-.81,12.52-2.19,5.43-1.87,9.06-5.51,9.43-11.42.22-3.43-.17-6.94-.64-10.36-.63-4.6-3.5-7.61-7.64-9.51-.85-.39-1.4-.27-1.84.67-1.63,3.56-3.67,6.87-6.48,9.63-4.4,4.31-9.35,6.82-15.84,5.33-7.95-1.82-12.35-11.21-8.25-18.27,3.05-5.26,8.06-7.51,13.81-8.37,3.56-.53,7.12-.43,10.64.36,1.31.29,1.9-.07,1.96-1.42.04-.86.24-1.72.31-2.59.36-4.54-.38-8.79-3.63-12.24-3.14-3.34-7.29-4.86-11.65-5.25-6.27-.57-12.6-.79-18.9-.75-6.38.04-9.94,4.05-9.92,10.45.03,7.23,0,14.46,0,21.7ZM166.2,38.25c-1.24-.13-2.38-.32-3.54-.35-3.97-.12-7.88.1-11.12,2.84-2.94,2.49-2.11,6.81,1.54,8.07,1.98.68,3.85.13,5.49-.91,3.37-2.13,5.62-5.28,7.4-8.79.1-.19.11-.42.22-.87Z"/>
      <g>
        <path class="cls-1" d="M63.85,149.92h13.76v2.91h-5.44v17.75h-3.05v-17.75h-5.27v-2.91Z"/>
        <path class="cls-1" d="M87.58,149.92c1.08,0,2.08.14,3,.43.92.28,1.71.7,2.38,1.25.66.55,1.18,1.23,1.54,2.04.36.81.54,1.73.54,2.78,0,.82-.12,1.63-.36,2.44-.24.81-.63,1.53-1.18,2.18-.55.65-1.28,1.17-2.18,1.57-.9.4-2.02.6-3.35.6h-3.02v7.38h-3.02v-20.65h5.64ZM87.95,160.24c.76,0,1.4-.12,1.92-.36.52-.24.93-.54,1.22-.91.29-.37.5-.77.63-1.2.12-.43.18-.83.18-1.21s-.06-.78-.18-1.21c-.12-.43-.33-.84-.63-1.23-.29-.39-.69-.7-1.18-.94-.49-.24-1.1-.36-1.82-.36h-3.13v7.41h2.99ZM91.42,162.06l5.36,8.52h-3.53l-5.44-8.46,3.62-.06Z"/>
        <path class="cls-1" d="M98.72,170.57l9.11-21.53h.2l9.06,21.53h-3.47l-6.61-16.75,2.16-1.45-7.43,18.2h-3.02ZM104.27,162.83h7.38l1,2.59h-9.29l.91-2.59Z"/>
        <path class="cls-1" d="M119.77,149.92l6.64,16.63-1.71-.37,6.24-16.26h3.59l-9.2,21.59-9.17-21.59h3.62Z"/>
        <path class="cls-1" d="M138.54,149.92h13.53v2.91h-10.51v5.9h9.37v2.93h-9.37v5.98h10.91v2.93h-13.93v-20.65Z"/>
        <path class="cls-1" d="M157.19,149.92h3.02v17.72h10.34v2.93h-13.36v-20.65Z"/>
        <path class="cls-1" d="M182.57,149.92h13.76v2.91h-5.44v17.75h-3.05v-17.75h-5.27v-2.91Z"/>
        <path class="cls-1" d="M200.66,149.92h3.02v20.65h-3.02v-20.65Z"/>
        <path class="cls-1" d="M209.52,170.57v-20.65h5.73c2.05,0,3.8.31,5.24.93s2.61,1.44,3.49,2.48c.88,1.04,1.52,2.18,1.92,3.43.4,1.25.6,2.51.6,3.76,0,1.54-.27,2.92-.81,4.16-.54,1.23-1.29,2.29-2.24,3.18-.95.88-2.04,1.56-3.28,2.02s-2.54.7-3.9.7h-6.75ZM212.54,167.64h3.13c1.12,0,2.15-.16,3.09-.48.94-.32,1.76-.8,2.45-1.42.69-.63,1.22-1.4,1.59-2.31.37-.91.56-1.95.56-3.1,0-1.29-.2-2.41-.61-3.35s-.97-1.72-1.68-2.34c-.71-.62-1.5-1.07-2.36-1.37-.86-.29-1.74-.44-2.63-.44h-3.53v14.81Z"/>
        <path class="cls-1" d="M235.5,163.77l-7.63-13.84h3.73l5.95,11.25-.91.06,5.9-11.31h3.73l-7.75,13.84v6.81h-3.02v-6.81Z"/>
      </g>
      <g>
        <path class="cls-1" d="M23.74,118.52c1.05,1.37,1.58,2.94,1.58,4.69,0,2.6-.89,4.63-2.68,6.1-1.79,1.47-4.3,2.21-7.53,2.21H0v-30.51h14.63c3.12,0,5.56.69,7.33,2.08,1.78,1.38,2.66,3.33,2.66,5.84,0,1.79-.47,3.28-1.41,4.48-.94,1.2-2.19,2.01-3.74,2.45,1.79.4,3.21,1.29,4.26,2.66ZM8.48,113.13h4.28c2.13,0,3.2-.88,3.2-2.64s-1.07-2.73-3.2-2.73h-4.28v5.37ZM16.62,122c0-.92-.28-1.63-.84-2.12s-1.36-.74-2.4-.74h-4.89v5.54h4.93c2.13,0,3.2-.89,3.2-2.68Z"/>
        <path class="cls-1" d="M35.79,129.81c-2.4-1.34-4.29-3.2-5.69-5.58s-2.1-5.07-2.1-8.07.7-5.69,2.1-8.07,3.29-4.23,5.69-5.56c2.39-1.33,5.02-1.99,7.88-1.99s5.52.66,7.9,1.99c2.38,1.33,4.26,3.18,5.65,5.56s2.08,5.07,2.08,8.07-.69,5.69-2.08,8.07-3.27,4.24-5.67,5.58c-2.39,1.34-5.02,2.01-7.88,2.01s-5.48-.67-7.88-2.01ZM48.79,121.83c1.26-1.41,1.88-3.3,1.88-5.67s-.63-4.33-1.88-5.73c-1.25-1.4-2.96-2.1-5.13-2.1s-3.91.7-5.15,2.1-1.86,3.31-1.86,5.73.62,4.29,1.86,5.69,2.96,2.1,5.15,2.1,3.87-.71,5.13-2.12Z"/>
        <path class="cls-1" d="M69.84,129.81c-2.39-1.34-4.29-3.2-5.69-5.58-1.4-2.38-2.1-5.07-2.1-8.07s.7-5.69,2.1-8.07c1.4-2.38,3.29-4.23,5.69-5.56,2.39-1.33,5.02-1.99,7.88-1.99s5.52.66,7.9,1.99c2.38,1.33,4.26,3.18,5.65,5.56s2.08,5.07,2.08,8.07-.69,5.69-2.08,8.07-3.28,4.24-5.67,5.58c-2.4,1.34-5.02,2.01-7.88,2.01s-5.48-.67-7.88-2.01ZM82.84,121.83c1.25-1.41,1.88-3.3,1.88-5.67s-.63-4.33-1.88-5.73c-1.26-1.4-2.96-2.1-5.13-2.1s-3.91.7-5.15,2.1-1.86,3.31-1.86,5.73.62,4.29,1.86,5.69,2.96,2.1,5.15,2.1,3.87-.71,5.13-2.12Z"/>
        <path class="cls-1" d="M105.62,125.03h9.48v6.49h-17.96v-30.51h8.48v24.02Z"/>
        <path class="cls-1" d="M160.15,101.15l-10.78,30.38h-9.26l-10.78-30.38h7.88l7.53,22.93,7.57-22.93h7.83Z"/>
        <path class="cls-1" d="M169.73,129.84c-2.38-1.33-4.27-3.18-5.67-5.56-1.4-2.38-2.1-5.06-2.1-8.03s.7-5.64,2.1-8c1.4-2.37,3.29-4.21,5.67-5.54,2.38-1.33,5-1.99,7.85-1.99s5.47.66,7.85,1.99c2.38,1.33,4.25,3.17,5.62,5.54,1.37,2.37,2.06,5.03,2.06,8s-.69,5.65-2.08,8.03-3.26,4.23-5.62,5.56c-2.37,1.33-4.98,1.99-7.83,1.99s-5.47-.66-7.85-1.99ZM183.41,122.65c1.46-1.62,2.19-3.75,2.19-6.4s-.73-4.82-2.19-6.43c-1.46-1.6-3.4-2.4-5.82-2.4s-4.41.79-5.86,2.38c-1.46,1.59-2.19,3.74-2.19,6.45s.73,4.83,2.19,6.43c1.46,1.6,3.41,2.4,5.86,2.4s4.36-.81,5.82-2.42Z"/>
        <path class="cls-1" d="M223.28,101.15l-10.51,20.34v10.04h-7.4v-10.04l-10.52-20.34h8.39l5.89,12.72,5.84-12.72h8.31Z"/>
        <path class="cls-1" d="M245.18,126.16h-11.34l-1.82,5.37h-7.74l10.99-30.38h8.57l10.99,30.38h-7.83l-1.82-5.37ZM243.27,120.45l-3.77-11.12-3.72,11.12h7.49Z"/>
        <path class="cls-1" d="M278.32,110.75c-.55-1.01-1.34-1.78-2.36-2.32-1.02-.53-2.23-.8-3.61-.8-2.39,0-4.31.79-5.75,2.36-1.44,1.57-2.16,3.67-2.16,6.3,0,2.8.76,4.98,2.27,6.56s3.6,2.36,6.25,2.36c1.82,0,3.35-.46,4.61-1.38,1.25-.92,2.17-2.25,2.75-3.98h-9.39v-5.45h16.1v6.88c-.55,1.85-1.48,3.56-2.79,5.15-1.31,1.59-2.98,2.87-5,3.85-2.02.98-4.3,1.47-6.84,1.47-3,0-5.68-.66-8.03-1.97-2.35-1.31-4.18-3.14-5.5-5.47s-1.97-5-1.97-8,.66-5.68,1.97-8.03c1.31-2.35,3.14-4.18,5.47-5.5,2.34-1.31,5-1.97,8-1.97,3.63,0,6.7.88,9.2,2.64s4.15,4.2,4.96,7.31h-8.18Z"/>
        <path class="cls-1" d="M298.53,107.07v6.14h9.91v5.71h-9.91v6.66h11.21v5.93h-18.61v-30.38h18.61v5.93h-11.21Z"/>
      </g>
    </g>
  </g>
</svg>